<?xml version="1.0" encoding="UTF-8" standalone="no"?>
<!DOCTYPE svg PUBLIC "-//W3C//DTD SVG 1.1//EN" "http://www.w3.org/Graphics/SVG/1.1/DTD/svg11.dtd">
<svg width="840px" height="640px" xmlns="http://www.w3.org/2000/svg" version="1.1">
<rect x="0" y="0" width="800" height="600" style="fill:yellow;stroke:brown;stroke-width:2;fill-opacity:0.4;stroke-opacity:0.8"/>
<line x1="0" y1="200" x2="0" y2="200" stroke="red" stroke-width="2"/>
<line x1="0" y1="200" x2="0" y2="0" stroke="red" stroke-width="2"/>
<line x1="0" y1="200" x2="0" y2="0" stroke="red" stroke-width="2"/>
<line x1="0" y1="0" x2="0" y2="0" stroke="red" stroke-width="2"/>
<line x1="0" y1="100" x2="0" y2="100" stroke="red" stroke-width="2"/>
<line x1="0" y1="100" x2="0" y2="0" stroke="red" stroke-width="2"/>
<line x1="0" y1="100" x2="0" y2="0" stroke="red" stroke-width="2"/>
<line x1="0" y1="0" x2="0" y2="0" stroke="red" stroke-width="2"/>
<line x1="0" y1="100" x2="0" y2="100" stroke="red" stroke-width="2"/>
<line x1="0" y1="100" x2="0" y2="0" stroke="red" stroke-width="2"/>
<line x1="0" y1="100" x2="0" y2="0" stroke="red" stroke-width="2"/>
<line x1="0" y1="0" x2="0" y2="0" stroke="red" stroke-width="2"/>
<line x1="0" y1="100" x2="0" y2="100" stroke="red" stroke-width="2"/>
<line x1="0" y1="100" x2="0" y2="0" stroke="red" stroke-width="2"/>
<line x1="0" y1="100" x2="0" y2="0" stroke="red" stroke-width="2"/>
<line x1="0" y1="0" x2="0" y2="0" stroke="red" stroke-width="2"/>
<line x1="0" y1="100" x2="0" y2="100" stroke="red" stroke-width="2"/>
<line x1="0" y1="100" x2="0" y2="0" stroke="red" stroke-width="2"/>
<line x1="0" y1="100" x2="0" y2="0" stroke="red" stroke-width="2"/>
<line x1="0" y1="0" x2="0" y2="0" stroke="red" stroke-width="2"/>
<line x1="0" y1="100" x2="0" y2="100" stroke="red" stroke-width="2"/>
<line x1="0" y1="100" x2="0" y2="0" stroke="red" stroke-width="2"/>
<line x1="0" y1="100" x2="0" y2="0" stroke="red" stroke-width="2"/>
<line x1="0" y1="0" x2="0" y2="0" stroke="red" stroke-width="2"/>
<line x1="0" y1="100" x2="0" y2="100" stroke="red" stroke-width="2"/>
<line x1="0" y1="100" x2="0" y2="0" stroke="red" stroke-width="2"/>
<line x1="0" y1="100" x2="0" y2="0" stroke="red" stroke-width="2"/>
<line x1="0" y1="0" x2="0" y2="0" stroke="red" stroke-width="2"/>
<line x1="0" y1="100" x2="0" y2="100" stroke="red" stroke-width="2"/>
<line x1="0" y1="100" x2="0" y2="0" stroke="red" stroke-width="2"/>
<line x1="0" y1="100" x2="0" y2="0" stroke="red" stroke-width="2"/>
<line x1="0" y1="0" x2="0" y2="0" stroke="red" stroke-width="2"/>
<line x1="0" y1="100" x2="0" y2="100" stroke="red" stroke-width="2"/>
<line x1="0" y1="100" x2="0" y2="0" stroke="red" stroke-width="2"/>
<line x1="0" y1="100" x2="0" y2="0" stroke="red" stroke-width="2"/>
<line x1="0" y1="0" x2="0" y2="0" stroke="red" stroke-width="2"/>
<line x1="0" y1="100" x2="0" y2="100" stroke="red" stroke-width="2"/>
<line x1="0" y1="100" x2="0" y2="0" stroke="red" stroke-width="2"/>
<line x1="0" y1="100" x2="0" y2="0" stroke="red" stroke-width="2"/>
<line x1="0" y1="0" x2="0" y2="0" stroke="red" stroke-width="2"/>
<line x1="0" y1="100" x2="0" y2="100" stroke="red" stroke-width="2"/>
<line x1="0" y1="100" x2="0" y2="0" stroke="red" stroke-width="2"/>
<line x1="0" y1="100" x2="0" y2="0" stroke="red" stroke-width="2"/>
<line x1="0" y1="0" x2="0" y2="0" stroke="red" stroke-width="2"/>
<line x1="0" y1="80" x2="0" y2="80" stroke="red" stroke-width="2"/>
<line x1="0" y1="80" x2="0" y2="0" stroke="red" stroke-width="2"/>
<line x1="0" y1="80" x2="0" y2="0" stroke="red" stroke-width="2"/>
<line x1="0" y1="0" x2="0" y2="0" stroke="red" stroke-width="2"/>
<line x1="0" y1="80" x2="0" y2="80" stroke="red" stroke-width="2"/>
<line x1="0" y1="80" x2="0" y2="0" stroke="red" stroke-width="2"/>
<line x1="0" y1="80" x2="0" y2="0" stroke="red" stroke-width="2"/>
<line x1="0" y1="0" x2="0" y2="0" stroke="red" stroke-width="2"/>
<line x1="0" y1="80" x2="0" y2="80" stroke="red" stroke-width="2"/>
<line x1="0" y1="80" x2="0" y2="0" stroke="red" stroke-width="2"/>
<line x1="0" y1="80" x2="0" y2="0" stroke="red" stroke-width="2"/>
<line x1="0" y1="0" x2="0" y2="0" stroke="red" stroke-width="2"/>
<line x1="0" y1="80" x2="0" y2="80" stroke="red" stroke-width="2"/>
<line x1="0" y1="80" x2="0" y2="0" stroke="red" stroke-width="2"/>
<line x1="0" y1="80" x2="0" y2="0" stroke="red" stroke-width="2"/>
<line x1="0" y1="0" x2="0" y2="0" stroke="red" stroke-width="2"/>
<line x1="0" y1="80" x2="0" y2="80" stroke="red" stroke-width="2"/>
<line x1="0" y1="80" x2="0" y2="0" stroke="red" stroke-width="2"/>
<line x1="0" y1="80" x2="0" y2="0" stroke="red" stroke-width="2"/>
<line x1="0" y1="0" x2="0" y2="0" stroke="red" stroke-width="2"/>
<line x1="0" y1="80" x2="0" y2="80" stroke="red" stroke-width="2"/>
<line x1="0" y1="80" x2="0" y2="0" stroke="red" stroke-width="2"/>
<line x1="0" y1="80" x2="0" y2="0" stroke="red" stroke-width="2"/>
<line x1="0" y1="0" x2="0" y2="0" stroke="red" stroke-width="2"/>
<line x1="0" y1="80" x2="0" y2="80" stroke="red" stroke-width="2"/>
<line x1="0" y1="80" x2="0" y2="0" stroke="red" stroke-width="2"/>
<line x1="0" y1="80" x2="0" y2="0" stroke="red" stroke-width="2"/>
<line x1="0" y1="0" x2="0" y2="0" stroke="red" stroke-width="2"/>
<line x1="0" y1="80" x2="0" y2="80" stroke="red" stroke-width="2"/>
<line x1="0" y1="80" x2="0" y2="0" stroke="red" stroke-width="2"/>
<line x1="0" y1="80" x2="0" y2="0" stroke="red" stroke-width="2"/>
<line x1="0" y1="0" x2="0" y2="0" stroke="red" stroke-width="2"/>
<line x1="0" y1="80" x2="0" y2="80" stroke="red" stroke-width="2"/>
<line x1="0" y1="80" x2="0" y2="0" stroke="red" stroke-width="2"/>
<line x1="0" y1="80" x2="0" y2="0" stroke="red" stroke-width="2"/>
<line x1="0" y1="0" x2="0" y2="0" stroke="red" stroke-width="2"/>
<line x1="0" y1="80" x2="0" y2="80" stroke="red" stroke-width="2"/>
<line x1="0" y1="80" x2="0" y2="0" stroke="red" stroke-width="2"/>
<line x1="0" y1="80" x2="0" y2="0" stroke="red" stroke-width="2"/>
<line x1="0" y1="0" x2="0" y2="0" stroke="red" stroke-width="2"/>
<line x1="0" y1="80" x2="0" y2="80" stroke="red" stroke-width="2"/>
<line x1="0" y1="80" x2="0" y2="0" stroke="red" stroke-width="2"/>
<line x1="0" y1="80" x2="0" y2="0" stroke="red" stroke-width="2"/>
<line x1="0" y1="0" x2="0" y2="0" stroke="red" stroke-width="2"/>
<line x1="0" y1="80" x2="0" y2="80" stroke="red" stroke-width="2"/>
<line x1="0" y1="80" x2="0" y2="0" stroke="red" stroke-width="2"/>
<line x1="0" y1="80" x2="0" y2="0" stroke="red" stroke-width="2"/>
<line x1="0" y1="0" x2="0" y2="0" stroke="red" stroke-width="2"/>
<line x1="0" y1="80" x2="0" y2="80" stroke="red" stroke-width="2"/>
<line x1="0" y1="80" x2="0" y2="0" stroke="red" stroke-width="2"/>
<line x1="0" y1="80" x2="0" y2="0" stroke="red" stroke-width="2"/>
<line x1="0" y1="0" x2="0" y2="0" stroke="red" stroke-width="2"/>
<line x1="0" y1="80" x2="0" y2="80" stroke="red" stroke-width="2"/>
<line x1="0" y1="80" x2="0" y2="0" stroke="red" stroke-width="2"/>
<line x1="0" y1="80" x2="0" y2="0" stroke="red" stroke-width="2"/>
<line x1="0" y1="0" x2="0" y2="0" stroke="red" stroke-width="2"/>
<line x1="0" y1="80" x2="0" y2="80" stroke="red" stroke-width="2"/>
<line x1="0" y1="80" x2="0" y2="0" stroke="red" stroke-width="2"/>
<line x1="0" y1="80" x2="0" y2="0" stroke="red" stroke-width="2"/>
<line x1="0" y1="0" x2="0" y2="0" stroke="red" stroke-width="2"/>
<line x1="0" y1="80" x2="0" y2="80" stroke="red" stroke-width="2"/>
<line x1="0" y1="80" x2="0" y2="0" stroke="red" stroke-width="2"/>
<line x1="0" y1="80" x2="0" y2="0" stroke="red" stroke-width="2"/>
<line x1="0" y1="0" x2="0" y2="0" stroke="red" stroke-width="2"/>
<line x1="0" y1="80" x2="0" y2="80" stroke="red" stroke-width="2"/>
<line x1="0" y1="80" x2="0" y2="0" stroke="red" stroke-width="2"/>
<line x1="0" y1="80" x2="0" y2="0" stroke="red" stroke-width="2"/>
<line x1="0" y1="0" x2="0" y2="0" stroke="red" stroke-width="2"/>
<line x1="0" y1="80" x2="0" y2="80" stroke="red" stroke-width="2"/>
<line x1="0" y1="80" x2="0" y2="0" stroke="red" stroke-width="2"/>
<line x1="0" y1="80" x2="0" y2="0" stroke="red" stroke-width="2"/>
<line x1="0" y1="0" x2="0" y2="0" stroke="red" stroke-width="2"/>
<line x1="0" y1="80" x2="0" y2="80" stroke="red" stroke-width="2"/>
<line x1="0" y1="80" x2="0" y2="0" stroke="red" stroke-width="2"/>
<line x1="0" y1="80" x2="0" y2="0" stroke="red" stroke-width="2"/>
<line x1="0" y1="0" x2="0" y2="0" stroke="red" stroke-width="2"/>
<line x1="0" y1="80" x2="0" y2="80" stroke="red" stroke-width="2"/>
<line x1="0" y1="80" x2="0" y2="0" stroke="red" stroke-width="2"/>
<line x1="0" y1="80" x2="0" y2="0" stroke="red" stroke-width="2"/>
<line x1="0" y1="0" x2="0" y2="0" stroke="red" stroke-width="2"/>
<line x1="0" y1="60" x2="0" y2="60" stroke="red" stroke-width="2"/>
<line x1="0" y1="60" x2="0" y2="0" stroke="red" stroke-width="2"/>
<line x1="0" y1="60" x2="0" y2="0" stroke="red" stroke-width="2"/>
<line x1="0" y1="0" x2="0" y2="0" stroke="red" stroke-width="2"/>
<line x1="0" y1="60" x2="0" y2="60" stroke="red" stroke-width="2"/>
<line x1="0" y1="60" x2="0" y2="0" stroke="red" stroke-width="2"/>
<line x1="0" y1="60" x2="0" y2="0" stroke="red" stroke-width="2"/>
<line x1="0" y1="0" x2="0" y2="0" stroke="red" stroke-width="2"/>
<line x1="0" y1="60" x2="0" y2="60" stroke="red" stroke-width="2"/>
<line x1="0" y1="60" x2="0" y2="0" stroke="red" stroke-width="2"/>
<line x1="0" y1="60" x2="0" y2="0" stroke="red" stroke-width="2"/>
<line x1="0" y1="0" x2="0" y2="0" stroke="red" stroke-width="2"/>
<line x1="0" y1="60" x2="0" y2="60" stroke="red" stroke-width="2"/>
<line x1="0" y1="60" x2="0" y2="0" stroke="red" stroke-width="2"/>
<line x1="0" y1="60" x2="0" y2="0" stroke="red" stroke-width="2"/>
<line x1="0" y1="0" x2="0" y2="0" stroke="red" stroke-width="2"/>
<line x1="0" y1="60" x2="0" y2="60" stroke="red" stroke-width="2"/>
<line x1="0" y1="60" x2="0" y2="0" stroke="red" stroke-width="2"/>
<line x1="0" y1="60" x2="0" y2="0" stroke="red" stroke-width="2"/>
<line x1="0" y1="0" x2="0" y2="0" stroke="red" stroke-width="2"/>
<line x1="0" y1="60" x2="0" y2="60" stroke="red" stroke-width="2"/>
<line x1="0" y1="60" x2="0" y2="0" stroke="red" stroke-width="2"/>
<line x1="0" y1="60" x2="0" y2="0" stroke="red" stroke-width="2"/>
<line x1="0" y1="0" x2="0" y2="0" stroke="red" stroke-width="2"/>
<line x1="0" y1="60" x2="0" y2="60" stroke="red" stroke-width="2"/>
<line x1="0" y1="60" x2="0" y2="0" stroke="red" stroke-width="2"/>
<line x1="0" y1="60" x2="0" y2="0" stroke="red" stroke-width="2"/>
<line x1="0" y1="0" x2="0" y2="0" stroke="red" stroke-width="2"/>
<line x1="0" y1="60" x2="0" y2="60" stroke="red" stroke-width="2"/>
<line x1="0" y1="60" x2="0" y2="0" stroke="red" stroke-width="2"/>
<line x1="0" y1="60" x2="0" y2="0" stroke="red" stroke-width="2"/>
<line x1="0" y1="0" x2="0" y2="0" stroke="red" stroke-width="2"/>
<line x1="0" y1="60" x2="0" y2="60" stroke="red" stroke-width="2"/>
<line x1="0" y1="60" x2="0" y2="0" stroke="red" stroke-width="2"/>
<line x1="0" y1="60" x2="0" y2="0" stroke="red" stroke-width="2"/>
<line x1="0" y1="0" x2="0" y2="0" stroke="red" stroke-width="2"/>
<line x1="0" y1="60" x2="0" y2="60" stroke="red" stroke-width="2"/>
<line x1="0" y1="60" x2="0" y2="0" stroke="red" stroke-width="2"/>
<line x1="0" y1="60" x2="0" y2="0" stroke="red" stroke-width="2"/>
<line x1="0" y1="0" x2="0" y2="0" stroke="red" stroke-width="2"/>
<line x1="0" y1="60" x2="0" y2="60" stroke="red" stroke-width="2"/>
<line x1="0" y1="60" x2="0" y2="0" stroke="red" stroke-width="2"/>
<line x1="0" y1="60" x2="0" y2="0" stroke="red" stroke-width="2"/>
<line x1="0" y1="0" x2="0" y2="0" stroke="red" stroke-width="2"/>
<line x1="0" y1="60" x2="0" y2="60" stroke="red" stroke-width="2"/>
<line x1="0" y1="60" x2="0" y2="0" stroke="red" stroke-width="2"/>
<line x1="0" y1="60" x2="0" y2="0" stroke="red" stroke-width="2"/>
<line x1="0" y1="0" x2="0" y2="0" stroke="red" stroke-width="2"/>
<line x1="0" y1="60" x2="0" y2="60" stroke="red" stroke-width="2"/>
<line x1="0" y1="60" x2="0" y2="0" stroke="red" stroke-width="2"/>
<line x1="0" y1="60" x2="0" y2="0" stroke="red" stroke-width="2"/>
<line x1="0" y1="0" x2="0" y2="0" stroke="red" stroke-width="2"/>
<line x1="0" y1="60" x2="0" y2="60" stroke="red" stroke-width="2"/>
<line x1="0" y1="60" x2="0" y2="0" stroke="red" stroke-width="2"/>
<line x1="0" y1="60" x2="0" y2="0" stroke="red" stroke-width="2"/>
<line x1="0" y1="0" x2="0" y2="0" stroke="red" stroke-width="2"/>
<line x1="0" y1="60" x2="0" y2="60" stroke="red" stroke-width="2"/>
<line x1="0" y1="60" x2="0" y2="0" stroke="red" stroke-width="2"/>
<line x1="0" y1="60" x2="0" y2="0" stroke="red" stroke-width="2"/>
<line x1="0" y1="0" x2="0" y2="0" stroke="red" stroke-width="2"/>
<line x1="0" y1="60" x2="0" y2="60" stroke="red" stroke-width="2"/>
<line x1="0" y1="60" x2="0" y2="0" stroke="red" stroke-width="2"/>
<line x1="0" y1="60" x2="0" y2="0" stroke="red" stroke-width="2"/>
<line x1="0" y1="0" x2="0" y2="0" stroke="red" stroke-width="2"/>
<line x1="0" y1="60" x2="0" y2="60" stroke="red" stroke-width="2"/>
<line x1="0" y1="60" x2="0" y2="0" stroke="red" stroke-width="2"/>
<line x1="0" y1="60" x2="0" y2="0" stroke="red" stroke-width="2"/>
<line x1="0" y1="0" x2="0" y2="0" stroke="red" stroke-width="2"/>
<line x1="0" y1="60" x2="0" y2="60" stroke="red" stroke-width="2"/>
<line x1="0" y1="60" x2="0" y2="0" stroke="red" stroke-width="2"/>
<line x1="0" y1="60" x2="0" y2="0" stroke="red" stroke-width="2"/>
<line x1="0" y1="0" x2="0" y2="0" stroke="red" stroke-width="2"/>
<line x1="0" y1="60" x2="0" y2="60" stroke="red" stroke-width="2"/>
<line x1="0" y1="60" x2="0" y2="0" stroke="red" stroke-width="2"/>
<line x1="0" y1="60" x2="0" y2="0" stroke="red" stroke-width="2"/>
<line x1="0" y1="0" x2="0" y2="0" stroke="red" stroke-width="2"/>
<line x1="0" y1="60" x2="0" y2="60" stroke="red" stroke-width="2"/>
<line x1="0" y1="60" x2="0" y2="0" stroke="red" stroke-width="2"/>
<line x1="0" y1="60" x2="0" y2="0" stroke="red" stroke-width="2"/>
<line x1="0" y1="0" x2="0" y2="0" stroke="red" stroke-width="2"/>
<line x1="0" y1="60" x2="0" y2="60" stroke="red" stroke-width="2"/>
<line x1="0" y1="60" x2="0" y2="0" stroke="red" stroke-width="2"/>
<line x1="0" y1="60" x2="0" y2="0" stroke="red" stroke-width="2"/>
<line x1="0" y1="0" x2="0" y2="0" stroke="red" stroke-width="2"/>
<line x1="0" y1="60" x2="0" y2="60" stroke="red" stroke-width="2"/>
<line x1="0" y1="60" x2="0" y2="0" stroke="red" stroke-width="2"/>
<line x1="0" y1="60" x2="0" y2="0" stroke="red" stroke-width="2"/>
<line x1="0" y1="0" x2="0" y2="0" stroke="red" stroke-width="2"/>
<line x1="0" y1="60" x2="0" y2="60" stroke="red" stroke-width="2"/>
<line x1="0" y1="60" x2="0" y2="0" stroke="red" stroke-width="2"/>
<line x1="0" y1="60" x2="0" y2="0" stroke="red" stroke-width="2"/>
<line x1="0" y1="0" x2="0" y2="0" stroke="red" stroke-width="2"/>
<line x1="0" y1="60" x2="0" y2="60" stroke="red" stroke-width="2"/>
<line x1="0" y1="60" x2="0" y2="0" stroke="red" stroke-width="2"/>
<line x1="0" y1="60" x2="0" y2="0" stroke="red" stroke-width="2"/>
<line x1="0" y1="0" x2="0" y2="0" stroke="red" stroke-width="2"/>
<line x1="0" y1="60" x2="0" y2="60" stroke="red" stroke-width="2"/>
<line x1="0" y1="60" x2="0" y2="0" stroke="red" stroke-width="2"/>
<line x1="0" y1="60" x2="0" y2="0" stroke="red" stroke-width="2"/>
<line x1="0" y1="0" x2="0" y2="0" stroke="red" stroke-width="2"/>
<line x1="0" y1="60" x2="0" y2="60" stroke="red" stroke-width="2"/>
<line x1="0" y1="60" x2="0" y2="0" stroke="red" stroke-width="2"/>
<line x1="0" y1="60" x2="0" y2="0" stroke="red" stroke-width="2"/>
<line x1="0" y1="0" x2="0" y2="0" stroke="red" stroke-width="2"/>
<line x1="0" y1="60" x2="0" y2="60" stroke="red" stroke-width="2"/>
<line x1="0" y1="60" x2="0" y2="0" stroke="red" stroke-width="2"/>
<line x1="0" y1="60" x2="0" y2="0" stroke="red" stroke-width="2"/>
<line x1="0" y1="0" x2="0" y2="0" stroke="red" stroke-width="2"/>
<line x1="0" y1="60" x2="0" y2="60" stroke="red" stroke-width="2"/>
<line x1="0" y1="60" x2="0" y2="0" stroke="red" stroke-width="2"/>
<line x1="0" y1="60" x2="0" y2="0" stroke="red" stroke-width="2"/>
<line x1="0" y1="0" x2="0" y2="0" stroke="red" stroke-width="2"/>
<line x1="0" y1="60" x2="0" y2="60" stroke="red" stroke-width="2"/>
<line x1="0" y1="60" x2="0" y2="0" stroke="red" stroke-width="2"/>
<line x1="0" y1="60" x2="0" y2="0" stroke="red" stroke-width="2"/>
<line x1="0" y1="0" x2="0" y2="0" stroke="red" stroke-width="2"/>
<line x1="0" y1="60" x2="0" y2="60" stroke="red" stroke-width="2"/>
<line x1="0" y1="60" x2="0" y2="0" stroke="red" stroke-width="2"/>
<line x1="0" y1="60" x2="0" y2="0" stroke="red" stroke-width="2"/>
<line x1="0" y1="0" x2="0" y2="0" stroke="red" stroke-width="2"/>
</svg>
